<svg width="50" height="25" viewBox="0 0 50 25" fill="none" xmlns="http://www.w3.org/2000/svg">
<path d="M0.0227273 24V0.727272H9.20455C10.9697 0.727272 12.4735 1.06439 13.7159 1.73864C14.9583 2.4053 15.9053 3.33333 16.5568 4.52273C17.2159 5.70454 17.5455 7.06818 17.5455 8.61364C17.5455 10.1591 17.2121 11.5227 16.5455 12.7045C15.8788 13.8864 14.9129 14.8068 13.6477 15.4659C12.3902 16.125 10.8674 16.4545 9.07955 16.4545H3.22727V12.5114H8.28409C9.23106 12.5114 10.0114 12.3485 10.625 12.0227C11.2462 11.6894 11.7083 11.2311 12.0114 10.6477C12.322 10.0568 12.4773 9.37879 12.4773 8.61364C12.4773 7.84091 12.322 7.16667 12.0114 6.59091C11.7083 6.00757 11.2462 5.55682 10.625 5.23864C10.0038 4.91288 9.21591 4.75 8.26136 4.75H4.94318V24H0.0227273ZM20.6506 24V6.54545H25.3438V9.59091H25.5256C25.8438 8.50758 26.3778 7.68939 27.1278 7.13636C27.8778 6.57576 28.7415 6.29545 29.7188 6.29545C29.9612 6.29545 30.2225 6.31061 30.5028 6.34091C30.7831 6.37121 31.0294 6.41288 31.2415 6.46591V10.7614C31.0142 10.6932 30.6998 10.6326 30.2983 10.5795C29.8968 10.5265 29.5294 10.5 29.196 10.5C28.4839 10.5 27.8475 10.6553 27.2869 10.9659C26.7339 11.2689 26.2945 11.6932 25.9688 12.2386C25.6506 12.7841 25.4915 13.4129 25.4915 14.125V24H20.6506ZM40.8182 24.3409C39.053 24.3409 37.5265 23.9659 36.2386 23.2159C34.9583 22.4583 33.9697 21.4053 33.2727 20.0568C32.5758 18.7008 32.2273 17.1288 32.2273 15.3409C32.2273 13.5379 32.5758 11.9621 33.2727 10.6136C33.9697 9.25758 34.9583 8.20454 36.2386 7.45454C37.5265 6.69697 39.053 6.31818 40.8182 6.31818C42.5833 6.31818 44.1061 6.69697 45.3864 7.45454C46.6742 8.20454 47.6667 9.25758 48.3636 10.6136C49.0606 11.9621 49.4091 13.5379 49.4091 15.3409C49.4091 17.1288 49.0606 18.7008 48.3636 20.0568C47.6667 21.4053 46.6742 22.4583 45.3864 23.2159C44.1061 23.9659 42.5833 24.3409 40.8182 24.3409ZM40.8409 20.5909C41.6439 20.5909 42.3144 20.3636 42.8523 19.9091C43.3902 19.447 43.7955 18.8182 44.0682 18.0227C44.3485 17.2273 44.4886 16.322 44.4886 15.3068C44.4886 14.2917 44.3485 13.3864 44.0682 12.5909C43.7955 11.7955 43.3902 11.1667 42.8523 10.7045C42.3144 10.2424 41.6439 10.0114 40.8409 10.0114C40.0303 10.0114 39.3485 10.2424 38.7955 10.7045C38.25 11.1667 37.8371 11.7955 37.5568 12.5909C37.2841 13.3864 37.1477 14.2917 37.1477 15.3068C37.1477 16.322 37.2841 17.2273 37.5568 18.0227C37.8371 18.8182 38.25 19.447 38.7955 19.9091C39.3485 20.3636 40.0303 20.5909 40.8409 20.5909Z" fill="#CB2E92"/>
</svg>
