<?xml version="1.0" encoding="utf-8"?>
<!-- Generator: Adobe Illustrator 27.5.0, SVG Export Plug-In . SVG Version: 6.00 Build 0)  -->
<svg version="1.1" id="_x2DC_รรฐ_x5F_1" xmlns="http://www.w3.org/2000/svg" xmlns:xlink="http://www.w3.org/1999/xlink" x="0px"
	 y="0px" viewBox="0 0 3000 3000" style="enable-background:new 0 0 3000 3000;" xml:space="preserve">
<rect style="fill:#FFFFFF;" width="3000" height="3000"/>
<g>
	<path style="fill:#ECECEC;" d="M2716.636,1499.993c0,324.732-127.216,619.743-334.542,837.924
		c-3.488,3.67-6.991,7.312-10.521,10.94c-221,226.875-529.825,367.78-871.581,367.78c-348.747,0-663.223-146.738-885.046-381.831
		c-2.135-2.26-4.256-4.535-6.377-6.809c-201.799-217.163-325.206-508.169-325.206-828.003
		c0-671.93,544.699-1216.629,1216.629-1216.629S2716.636,828.063,2716.636,1499.993z"/>
	<path style="fill:#9C9C9B;" d="M2371.574,2348.857c-221,226.875-529.825,367.78-871.581,367.78
		c-348.747,0-663.223-146.738-885.046-381.831c145.231-85.634,498.443-195.465,547.323-214.497
		c54.95-21.405,101.639-145.887,101.639-145.887s-277.68,9.726-396.58-208.134c-118.9-217.86-115.007-317.072-97.495-492.135
		c17.498-175.064,49.592-373.473,183.813-545.62c134.221-172.148,271.359-283.025,396.818-300.523
		c125.458-17.512,309.285,26.261,361.807,49.592c52.508,23.345,58.355,40.857,137.124,52.522
		c78.783,11.679,201.325,43.773,288.871,309.286c87.532,265.512,131.291,636.069,29.177,840.31
		c-102.127,204.255-201.325,271.359-434.758,294.704c0,0,23.345,129.84,84.616,145.887
		c61.271,16.047,393.901,40.843,548.551,221.753C2367.792,2344.322,2369.69,2346.582,2371.574,2348.857z"/>
</g>
</svg>
